/* XPM */
static char *a0b02f929b4a4806c4b5bc033fe61efcXTKbHPjVnCKbpkuZ[] = {
/* columns rows colors chars-per-pixel */
"64 64 255 2 ",
"   c #560901",
".  c #541205",
"X  c #670701",
"o  c #780601",
"O  c #7B0B01",
"+  c #6A1706",
"@  c #751B05",
"#  c #732B0D",
"$  c #870901",
"%  c #8C0D01",
"&  c #990500",
"*  c #940C01",
"=  c #9B0B01",
"-  c #831503",
";  c #891904",
":  c #921202",
">  c #9A1403",
",  c #991B05",
"<  c #A40400",
"1  c #AA0700",
"2  c #A40D02",
"3  c #AB0B01",
"4  c #B80300",
"5  c #B20B01",
"6  c #BC0C01",
"7  c #A61604",
"8  c #AC1303",
"9  c #A41A03",
"0  c #AD1C03",
"q  c #B31402",
"w  c #BB1302",
"e  c #B41A04",
"r  c #BD1B04",
"t  c #892708",
"y  c #992707",
"u  c #8E360B",
"i  c #9A380D",
"p  c #943A15",
"a  c #AC2506",
"s  c #A72708",
"d  c #B32304",
"f  c #BC2205",
"g  c #B72A06",
"h  c #B42609",
"j  c #BD2609",
"k  c #B42C0A",
"l  c #BA2C0B",
"z  c #A9360D",
"x  c #B7350A",
"c  c #BA340C",
"v  c #B13C0D",
"b  c #A22F11",
"n  c #A33A12",
"m  c #B63912",
"M  c #C50500",
"N  c #CB0400",
"B  c #C40D01",
"V  c #CB0D01",
"C  c #D80500",
"Z  c #D40C01",
"A  c #DB0C01",
"S  c #C21202",
"D  c #CB1403",
"F  c #C41B04",
"G  c #CA1B04",
"H  c #C71E09",
"J  c #D31403",
"K  c #DB1402",
"L  c #D41C03",
"P  c #DD1B03",
"I  c #D31A09",
"U  c #E20500",
"Y  c #EC0500",
"T  c #E40C01",
"R  c #EC0A00",
"E  c #F20500",
"W  c #FE0600",
"Q  c #F40E01",
"!  c #FD0C01",
"~  c #E31302",
"^  c #EC1402",
"/  c #E41D04",
"(  c #EC1B04",
")  c #EE1D08",
"_  c #F41402",
"`  c #FD1301",
"'  c #F41C04",
"]  c #FD1C03",
"[  c #F21F08",
"{  c #C32305",
"}  c #CB2305",
"|  c #CA2A06",
" . c #C42309",
".. c #C52A0A",
"X. c #CC2A0A",
"o. c #D32204",
"O. c #DB2305",
"+. c #D32D05",
"@. c #D92907",
"#. c #D42C0B",
"$. c #DA2D0A",
"%. c #C2350C",
"&. c #CA340C",
"*. c #C43808",
"=. c #CB3D0B",
"-. c #D63506",
";. c #D3350C",
":. c #DB350B",
">. c #D43B0B",
",. c #DB3C0D",
"<. c #C63B12",
"1. c #D63811",
"2. c #E32406",
"3. c #EC2304",
"4. c #E82708",
"5. c #E12B09",
"6. c #EB2B09",
"7. c #FC2303",
"8. c #F42B06",
"9. c #FC2C05",
"0. c #F32309",
"q. c #F82508",
"w. c #F32C09",
"e. c #FD2B0A",
"r. c #E4330B",
"t. c #E93709",
"y. c #EC350C",
"u. c #E43D0C",
"i. c #F33204",
"p. c #FE3C06",
"a. c #FD330A",
"s. c #F83409",
"d. c #F43B0C",
"f. c #FD3B0B",
"g. c #E93912",
"h. c #FB3A12",
"j. c #9A4315",
"k. c #9A5611",
"l. c #AC450E",
"z. c #BB460B",
"x. c #BA500C",
"c. c #AA4917",
"v. c #B84715",
"b. c #B9581B",
"n. c #AA5621",
"m. c #A95B24",
"M. c #B15422",
"N. c #BA6522",
"B. c #BC6631",
"V. c #CC430C",
"C. c #C6480A",
"Z. c #D5440B",
"A. c #D8490A",
"S. c #CA530D",
"D. c #D7550D",
"F. c #C54715",
"G. c #D74815",
"H. c #D34C14",
"J. c #C95619",
"K. c #D35914",
"L. c #DB5B14",
"P. c #D95618",
"I. c #D25D1C",
"U. c #E7460B",
"Y. c #F74609",
"T. c #FD430C",
"R. c #E7580A",
"E. c #F95809",
"W. c #E74813",
"Q. c #F94615",
"!. c #F24C15",
"~. c #FD4B12",
"^. c #E45214",
"/. c #EB5C14",
"(. c #E1531B",
"). c #E65919",
"_. c #EC5B1B",
"`. c #F75516",
"'. c #FE5B14",
"]. c #FF5B1A",
"[. c #C9631B",
"{. c #DC6315",
"}. c #D76916",
"|. c #DC651B",
" X c #DB6C1D",
".X c #D7741D",
"XX c #E8680C",
"oX c #F9650C",
"OX c #EE7409",
"+X c #FA740A",
"@X c #EC6412",
"#X c #E66818",
"$X c #EC6B1C",
"%X c #F26414",
"&X c #FE6315",
"*X c #F86A14",
"=X c #F4651A",
"-X c #FD641A",
";X c #F46C1A",
":X c #FE6C1B",
">X c #EB7619",
",X c #F87817",
"<X c #F2741C",
"1X c #FC741A",
"2X c #C45723",
"3X c #D95B24",
"4X c #E25A22",
"5X c #FC5920",
"6X c #CB6823",
"7X c #DD6521",
"8X c #D76923",
"9X c #C77728",
"0X c #D87828",
"qX c #C87D33",
"wX c #D87B32",
"eX c #E36C22",
"rX c #E86924",
"tX c #F96924",
"yX c #EB7C23",
"uX c #E87729",
"iX c #FA7325",
"pX c #F67C24",
"aX c #FB7A23",
"sX c #FC742B",
"dX c #F6792A",
"fX c #F37B34",
"gX c #F88F14",
"hX c #F8891A",
"jX c #D8832C",
"kX c #D98936",
"lX c #DE9839",
"zX c #EA862A",
"xX c #F48223",
"cX c #FC8423",
"vX c #F38B25",
"bX c #FD8D25",
"nX c #F1832B",
"mX c #FE862D",
"MX c #F4892D",
"NX c #FC8B2B",
"BX c #F9952A",
"VX c #E58934",
"CX c #F78835",
"ZX c #ED9736",
"AX c #FC9334",
"SX c #F49B34",
"DX c #FC9C33",
"FX c #F7973A",
"GX c #FBAE32",
"HX c #F9A63A",
"JX c #E79A41",
"KX c #F99D44",
"LX c #F8A944",
"PX c #FDB949",
"IX c #EFC762",
/* pixels */
"w.!.].!.:.2.] ] (  .W.;XBX<XxXnXuXJ.X.~ ^ 9.T.&XMXZXVXVX#XU.3.D 5  .$.8.7.e.Q.4XJ.|.n ; B U 5 D 9.f.T.9.} 9 D B > y x.x.j.t F ' ",
"U.rX7XF.k o.i.i.+.G 2.d._.L.eX4XW.2.D B F d.'.mXFXqXN. X).U.G w J a.W.=.| ..<.2Xb.eXc.h A ` 2.~.'.1X*XS.V.,.8.^ 1 q  .h > B Q ] ",
"(.sXJ.a a @.Y.U.F. .' ' } s h o.L > $ % 0 y.].nXMX9XJ.L.U.| > > L f.$XK.*.j %.F.2XJ.m L ` 7.U.<X1XhXyX|.tX=XQ./ 6 Z ^ Q T Q ` e.",
"!.tX(.&.r.i.E.R.R.*.G B X   - 0 g t t , L 6.Q.rXeXI.=.-.G 7 , f s.Q.P.6XH.@.6.r.,.$.2.] 7.T.^.zXpXvX$X/.=X1X_.| 8 V ! ! ^ ] 7.a.",
"W.tX8X3X(.sXaXcX,X%X-.w X O L T.&XuX8XZ.3.] 7.6.>.;.H 8 * e $.$.y.6.$.1.g.0.0.q.0.' A ` 3.Z.F.|.$X;XL.K.|.}.I.c a B ` Q F 4.8.q.",
"d._.P.2XrXsX1XxXhX,XA./ 6 K p.1XbXLXCX).w.` ! B = 2 * o * X.!.,.-./ _ ' 0.) [ ] ~ B 3 B 9 i l.rXdXiX/.L.).L.Z.*.f K _ K r 5.8.s.",
"~.tX3X2XI.fXmXJXSXHXL.7._ 7.E.,XaXFXuXL.w.! N X O w w 2 w / r.+.3.] ` ` ^ P 6.8.{ : > q y v R.1XmXaX1XvXxX#XZ.>.5.7._ A Z 3.i.f.",
"R./.^.V.V.^.$XVXBXMXW./ w $./.#X;X<XeXH.0.A 2 O 0 r.;.f ~ ` ] 7.] L h l l j #.j h r 7.q.a c '.BXHXaX1XDXJX7X>.2.O.H D N R ] i.E.",
"[.>X<X/.#X=XpXCXVXrXk O $ { V.D.@X>XK.X.~ J 0 a U.'.P.l D K ] 5.d i b.7X(.=.%.j 5.e.T.G.i m G.H.#X%XxXMX6XF.y.q.e.o.S N ! ] 9.C.",
"k.}.>X;X>X;X$XL.G.X.- o 4 ~ 3.-.=.m h J ` 0.<.C.$X;X).+.f f &.Z.A.{.aXmXfX3Xv.#.a.Q.(.v.p s 4.| V.*.H.v.n 1.h.h.f.} 6 A ` ` w # ",
"i C.R.*X}.L.A.=.j 8 2 V ! ` ^ J S w A ` q.u.S.XX*XR.W.-.m F.{.@XE.*XaXMXVX Xv.5.h.^.[.{.J.X.] 6 : , j  .f r.!.5X~.H 3 Z ~ _ w t ",
"{ @.t.G.l.c | G r L 3.8.a.{ O $ < 4 ! w.u.).yXbX>XD.d.f.(.;XoXR.R.oX*X<XMX>XI.u.`.7XuX<X#Xt.` M % 8 P ) $.V.J.F.b : $ 6 / 8.9.;.",
"l 2.7.P 8 6 A J 4.d.Y.E.%Xc.@ * 4 U 7.,.P.nXLXSX|.-.s.!.uXSXcX;XE.R.K. X>X>XK.=.U.#X,XvX#Xd./ J O.6.8.y.V.G.z s - : : d r.Y.E.^.",
"v.:.q./ 5 4 N K T.&X1X+XgX.Xn w U ` i.A./.pXJXwXF.t.p.^.#XzX0X[.S.C.V.A.R.XXS.v >.L.,XnXJ.>.t.T.tXQ.p.W.Z.;.0 8 F w.d.R.oX+XOX}.",
"b.P.W.+.> & Z 9.sXLXLXhXGX#Xv L ! 7.Y.~.;X8Xb.c O.i.Y.*X*X.XJ.b.z.A.U.Y.oX/.z.d o.r./.K.l.*.T.:XnX:.6.;.+.3.J q 4.~.-X>XSXDX.XS.",
"A.U.=XC.# = A p.aXAXFXSXLXN.z P ` s.'.*X{.l.j ^ ] f.&XhX,X,XR.R.R.Y.E.E.oXA.g K ` ] $.h y g :.iXVXJ $ = ^ ` K y _.AXHXvXLXFX8XA.",
"tXsXKX0Xx A ` y.8X9XjXjXqXj.h ^ ] f.^.J.u t B W ] U.$XBXAXBX1X,XpX<X,X@X{.*.} ! ! 3 = 5 B K ` E ~ y X * Q ` 9 u $XDXjX9XVXFXVXI.",
"tXfXAX X%.` Z s A.D.{.[.n.i G ! ` f # + + = U W 8 i }.SXHXHXHXZXLXBXZXJ.v } 7.] L + : Z Q Q ~ V J u.k f / e t i $XuXN.J.eXNXDX#X",
"CXAXuX[.>.P % t ).;X*XS.y 0 Q W ! =   X 3 A W Y q z yXPXPXHXLXPXIXJX[.&.} 3.f.T.U.v :.9.]  .s B 7.].tX,.O.q y z.{.6Xx.$XcXBXBX0X",
"eXuX>XR.*.F = e ,.W.V.t - A W Y Y < o 8 7.7.] ~ w { ).SXlX9X9X9X6Xv...' 2.a.-X].=X$X%X~.r.x y S 9.].-XV.| F } U.&X-X&X*XbXBXzX8X",
"xXcXvX Xz.0 1 Z 3.6.O.> 1 N Y A C < , d.`.Y.T.4.K P 6.^.b.j.v <.;.3._ ' f.-XAXsXdXfXVX).>.%.s r $.iXbX;XU.+.@.W.dXFXLXHXHXvXyXuX",
"XX,XhX|.%.J Y E ! ` ` S 6 < M C Q D <.dXnX:XcX_.2.` ^ 2.j ..O.( _ A J 4.].mXKXrX4XP.B.v.<.| 9 > *.1XhXbX<XH.:.U.dXKXKXmXFX9X.X X",
"@X,XpXeX;.^ W ! _ ] 9...a : B Q 7.T.uXFXVXzXDXuX#.` U R J ( ( K B 6 G Y.1XnXwX3XG.<.p t l F * $ &.cXGXGXBXI.;.g.5XsXnXFXZXN.S.{.",
"E.;XiXuX:.J Y ` a.T.`.G.Z.{ ( a.].sXFXSXwX8XnX0X&._ M U ( 6.#. .S Z o.!.iX8XM.v.1.f - % I T M = 5.:XBXHXZX8Xu.e.y.!.1XBXxX[.@X,X",
"eXuXfXwXm w _ a.&X:X$XL.Z.r.p.tXfXwXnXAX0X6X{.K.| w $ 8 a m v.l P Q ] a.x # t m @.w $ < T ! R 4 ( Y.L..X0XI.>.0.q.W.iXLXkX[.@XzX",
"rX#XI.c.b o.f.&XDXAX).>.O.2.~.uXm.n.8XKXkX8XL.A.a . . t C.}. XF.3.` ! 2 + + , F ^ ~ ^ ' 7.7.3.q K ' +.D.uX|.c } 5.F.3X8Xc.l.#XyX",
"H.m x ..y.!.iXmXAXrX<.0 3 F T.J.p F.*XbXjXb.C.+.9 + z 4XcXHXnXJ.} R 4     % D Q ` 7.a.T.Y.u.*.d o.] O.>.H.v.z %.,.m c l s z z.P.",
"r , } e.~._.uX6Xn.# + X $ r '.dX7XoXhXHXwXc.a w 2 l tXKXPXPXjXI.| 6 X   - G _ ! ' a.'.&X/.H.V.A.^.d.o.L } | k c &.s S ~ J q f O.",
"V 2 ( a.!.I.c.t - O * & 5 O.-XFXwX<XhX>Xv.y 8 Z K p.tXHXPXJXN.v.a % X - X.0.` ` { U.pXNX$XD.E.+XhX#Xk q B D j l | e T ! A V T ` ",
"Z 5 / ;.m v s e B M 4 M A P H.jXN.x.z.v.h 7 B _ 7.'.bXGXDXjXN.C.d 2 2 L 0.] Q B a U.,XcX#XD.XXgXBX{.x w B B 8 r L / ` _ w V ! W ",
"= $ 0  ...O./ ' ] ] D T W B : y t s f L A 2 B ` 9.&XNXDXFXjXN.v d q K ' ] T M 6 e A.>XbXxX$XoX+X,X;XA.O.R T L 8.q.a.a.g.j } ' R ",
"2 7 H I ( ] e.d.Y.!.%.I E 4 $ 8 L / ' ` Q 2 J ` 5.L.nXzXwXn.z  .P 2.a.h.5.D V T P :.%X+X,XXX,XBXDXzXH.3._ ] 9.f.!.=X&X-XZ.@.0.K ",
"5  .$.8.7.e.Q.4XJ.|.n ; B U 1 D 9.p.T.9.| 0 D B > y x.x.j.t F ' w.!.].!.:.2.] ] (  .W.;XBX<XxXnXuXJ.X.~ ( 9.T.&XMXZXVXVX#XU.3.D ",
"J a.W.=.| ..<.2Xb.eXc.h A ` 2.~.'.1X*XS.V.,.8.~ 1 q  .h > B Q ] U.rX7XF.k o.i.i.+.G 2.d._.L.eX4XW.2.D V F d.'.mXFXqXN. X).U.H w ",
"L f.$XK.*.j %.F.2XJ.m L ` 7.U.<X1XhXyX|.tX=XQ./ 6 Z ^ Q T Q ` e.(.sXJ.a 0 @.Y.U.F.| ' ' } s h o.L > $ % 0 y.].nXMX9XJ.L.W.| > > ",
"s.Q.P.6XH.@.6.r.,.$.2.] ] T.^.zX,XvX$X/.=X1X_.| 8 V ! ! ^ ] 7.a.!.tX(.&.r.i.E.R.R.*.G B X   - 0 g t t , L 6.Q.rXeXI.=.$.{ 7 , f ",
"y.6.$.1.g.0.0.q.0.' A ` 3.Z.F.|.$X;XL.K.|.}.I.c a B ` Q F 4.8.q.W.tXrX3X4XsXaXcX,X%X-.w X O L T.&XuX8XZ.3.] 7.6.>.;.H 8 * e $.$.",
"-./ _ ' 0.3.[ ] ~ B 3 S 9 i l.rXdXiX/.L.).L.Z.*.f K _ K r 5.8.s.d._.P.2XrXsXaXxXhX,XA./ 6 K p.1XbXLXCX).w.` ! B = 2 * o * X.!.,.",
"( ` ` ` ( P 6.8.{ : > q y v R.1XmXaX1XvXxX#XZ.>.5.7._ A Z 3.i.f.~.tX3X2XP.fXmXJXSXHXL.7._ 7.E.,XaXFXuXL.w.! N X O w w 2 w / r.+.",
"] L h l l j #.j h r 7.q.a c '.BXHXcX1XDXJX7X>.2.O.H D M R ] i.E.R./.^.V.V.^.$XVXBXMXW./ w $./.#X;X<XeXH.0.A 2 O 0 r.;.f ~ ` ] 7.",
"d i b.7X(.=.%.j 5.e.T.G.i m G.H.#X%XxXMX6XF.y.q.q.o.S N ! ] 9.C.[.>X<X/.#X=XpXCXVXrXk O $ { V.D.@X>XK.X.~ J 0 a U.'.P.l D K ] 5.",
"A.{.dXmXfX7Xv.X.a.Q.(.v.p s 4.| V.*.H.v.n 1.h.h.f.} 6 A ` ` r # k.}.>X;X>X;X$XL.G.X.- o 4 ~ 3.-.=.m h J ` 0.%.C.$X;X).+.f d %.Z.",
"E.*XaXMXVX Xv.5.h.^.[.{.J.X.] 6 : , j  .f r.!.5X~.G 3 Z ~ _ w ; i C.R.*X}.L.A.=.j 8 2 V ! ` ^ J S w A ` 0.u.S.XX*XR.W.-.m F.{.@X",
"R.oX;X<XMX>XI.u.`.7XuX<X#Xt.` M % 8 P ) $.G.J.F.b : $ q / 8.9.#. .$.t.G.l.c | G r L 3.8.a.{ O $ < 4 ! e.u.).yXbX>XD.d.f.(.;XoXR.",
"E.^.K. XxX>XK.=.U.#X,XvX#Xd./ J O.6.8.y.V.G.z s - : : d r.Y.E.^.l 4.7.P 8 B A J 4.d.Y.E.%Xc.@ * 4 U 7.,.P.nXLXSX|.-.s.!.uXSXcX;X",
"S.C.V.A.R.XXS.v >.L.,XnXJ.>.t.T.tXQ.p.W.Z.;.0 8 F w.d.R.oX+XOX}.v.:.q./ 5 4 N K T.&X1X+XgX.Xn w U ` i.A./.pXJXwXF.t.p.^.#XzX0X[.",
"C.Z.U.Y.oX/.z.d O.r./.K.l.*.~.:XnX:.6.;.+.3.J q 4.~.-X>XSXDX.XS.b.P.W.+.> & Z 9.sXLXLXhXGX#Xv L ! 7.Y.E.;X8Xb.c O.i.Y.*X*X XJ.b.",
"R.Y.E.E.oXA.g K ` ] @.h y g :.iXVXJ $ = ^ ` K y _.AXHXvXHXFX.XA.A.U.=XC.# = A p.aXAXFXSXLXN.z P ` s.'.*X{.l.j ^ ] f.&XhX,X,XR.R.",
"pX<X,X@X{.*.} ! ! 3 = 5 B K ` E ~ y X * Q ` 9 u $XDXjX9XVXFXVXI.tXsXKX0Xx A ` y.8X9XjXjXqXj.h ^ ] f.^.J.u t B W ] U.$XBXAXBX1XpX",
"LXBXZXJ.v } 7.] P + : A Q Q ~ V J u.x f / e t i $XuXN.J.eXNXDX#XtXfXAX X%._ Z s A.D.{.[.n.i G ! ` f # + + = U W 8 i }.SXHXHXHXZX",
"IXJX[.&.} 3.f.T.U.v :.9.]  .s B 7.].tX,.O.q y z.L.6Xv.$XcXBXBX0XCXAXuX[.>.P % t ).;X*XS.y 0 Q W ! =   X 3 Z W Y q z yXPXPXHXLXPX",
"6Xv...' 2.a.-X].=X$X%X~.r.x y S 9.].-XV.| F } U.&X-X&X*XbXBXzX8X#XuX>XR.*.F = e ,.W.V.t - A W Y Y < o 8 7.7.] ^ S { /.SXlX9X9X9X",
";.3._ ' f.-XAXsXdXfXVX).>.%.s r $.iXbX;XU.+.@.W.dXFXLXHXHXvXyXuXxXcXvXeXz.0 1 Z 3.6.O.> 1 N Y A C < , d.`.Y.T.4.K P 6.^.b.j.v <.",
"_ A J 4.].mXKXrX4XP.B.c.<.| 9 > *.1XhXbX<XH.:.U.dXCXKXmXFX9X.X.XXX,XhX|.%.J Y E ! ` ` S 6 < M C Q D <.dXnX:XcX_.2.` ^ 2.f ..O.( ",
"B 4 G Y.1XnXwX3XG.<.p t l F > $ &.cXGXGXBXI.;.g.5XsXnXFXZXN.S.{.@X,XpXeX;.^ W ! _ ] 9...a : B Q 7.T.uXFXkXzXDXuX#.` U R J ( ( K ",
"S Z o.!.iX8XM.v.1.f - % J T M = 5.:XBXHXZX8Xu.e.y.!.1XBXxX[.@X,XE.;XiXuX:.J Y ` a.T.`.G.Z.{ ( a.].sXFXSXwX8XnX0X&._ M U ( 6.$. .",
"P Q ] a.x # t m @.r % 2 T ! R 4 ( Y.L..X0XI.>.0.q.W.iXLXkX[.@XyXeXuXfXwXm w ` a.'.:X$XL.Z.r.p.tXfXwXnXAX0X6X{.K.| w $ 7 a m v.l ",
"3.` ! 2 + + , F ^ ~ ^ ' 7.7.( q ~ ' +.D.uX7Xc } 5.F.3X8Xc.l.#XyXrX).I.c.b o.f.&XDXAX).>.O.2.~.uXm.n.8XKXkX8XL.A.a . . t C.}. XF.",
"} R 4     % D Q ` 7.a.T.Y.u.| d o.] O.>.H.v.z %.,.m c l s z z.P.H.v x ..y.!.sXmXAXrX<.0 3 F T.J.p F.*XbXjXb.C.+.9 + z 4XcXHXzXJ.",
"| 6 X   - G _ ! ' a.'.&X/.H.V.A.^.d.o.L } | k c &.s S ~ J q f O.f , } e.~.4XuX6Xn.# + X $ r '.dX7XoXhXHXwXc.a w 2 l tXKXPXPXjX[.",
"a % X - X.0.` ` { U.pXNX$XL.E.+XhX#Xg q B D j l | e T ! A V ~ ` V 2 ( a.!.I.c.t - O * & 5 O.-XFXwX<XhX>Xv.y 8 Z K p.tXHXPXJXN.v.",
"d 2 2 L 0.] Q B a U.,XcX#XD.XXgXBX{.x w B B 8 r L / ` ^ w V ! ! Z 5 / ;.m v s e B M 4 M A P H.wXN.x.z.v.h 7 B ^ 7.'.NXGXDXjXN.C.",
"d q K ' ] T M 6 e A.>XbXxX$XoX+X,X;XA.O.^ T L 8.q.a.a.g.j } ' R = $ 0 j ..O./ ' 7.7.D U W B : y t s f L A 2 B ` 9.&XNXDXSXVX6Xv ",
"P 2.a.h.5.D V T P :.%X+X,XXX,XBXDXzXH.3._ ] 9.f.!.=X&X-XZ.$.0.K 2 7 H I ( ] e.d.Y.!.%.I E 4 $ 8 L / ] ` Q 2 Z ` 5.L.yXzXwXn.z  ."
};
