/* XPM */
static char *_f877d34b7f64588fb782c54df8e2621DiWLT1bQO57GTQ9A[] = {
/* columns rows colors chars-per-pixel */
"64 64 66 1 ",
"  c #0E750E",
". c #0E7C0E",
"X c #176617",
"o c #166C16",
"O c #186718",
"+ c #186B18",
"@ c #157515",
"# c #147C14",
"$ c #187218",
"% c #187B18",
"& c #068F06",
"* c #0E840E",
"= c #0C8C0C",
"- c #069406",
"; c #059C05",
": c #0C940C",
"> c #0C9C0C",
", c #138413",
"< c #138B13",
"1 c #188318",
"2 c #188B18",
"3 c #119311",
"4 c #119B11",
"5 c #05A405",
"6 c #04AC04",
"7 c #0BA20B",
"8 c #0AA60A",
"9 c #0CA10C",
"0 c #0CA70C",
"q c #09AA09",
"w c #08AC08",
"e c #08AE08",
"r c #09AF09",
"t c #0DAA0D",
"y c #0CAD0C",
"u c #00B300",
"i c #02B602",
"p c #05B105",
"a c #07B507",
"s c #00B900",
"d c #02BC02",
"f c #06BB06",
"g c #04BE04",
"h c #08B308",
"j c #0AB60A",
"k c #0CB10C",
"l c #09BB09",
"z c #08BE08",
"x c #11A311",
"c c #12A312",
"v c #10AA10",
"b c #02C102",
"n c #02C702",
"m c #04C304",
"M c #05C705",
"N c #02C902",
"B c #04CE04",
"V c #09C209",
"C c #08C508",
"Z c #02D002",
"A c #02D502",
"S c #04D004",
"D c #00D900",
"F c #01DD01",
"G c #04D904",
"H c #00E200",
/* pixels */
",$,=ADr4#%,>sB5341#96Zr3c%@9bba:8%,0Zs5c3%3ys6r3<13>du-#4%2>6sf#",
"g=q=MZdm;kr>rb6md9:85niMS:>8piN5g=q8miiGf9qhr5sBgyl>p6;rg=r85uN5",
"r:>*lMph:l>:7a5hh8=:>frjz:::8rg:r=>:lrrCqq>98;rzpjq:85->h=7:-5g:",
"9*<@>h88=t3#*q-87:,2:q>7r=<,:>h=7*<,>77h>>32=:7r704,::=:7*32:-h=",
"3@%O#<::*4%@o3=::2$%#3=:>#%%#,:#3@#$#<:9=2,%##:>:32$,. *:#21#,:#",
"%%<;@@,2$%<5#2,##2,8,,#,2+<r#@#X#$<:#$,3#%3>#$,,#%<5,@+@2@vS@$#+",
",gduq<#4,-sd53,33q6ih<@<4:fa>,#o,:r>r,#4,rd6q,,437ns8,##35FH-,@,",
"6Zi6ad-Nu;6srMjNZd6ra6>uB5rq8r8:r-7:lf7Nadd5r5qnnudurfl6BdAZ;i:N",
"5nu58r;d6;5r-hggma5>t755g;>::-r=7=:,9q5frpp::-rfs6p5>qM;biNm=q;g",
":d5-:9:r-&>7=9rqh8::3==-t=3<,*:#:##@,::t-7>,,=>qq>8>=>j:prgl*>:r",
"=h-:<3*7=*:>,3>:>::-2#,,4,0M#@#+##:;@#,4<3>-,,3:::9:#<0=97r9@<*7",
"#:*,,2#:,.==,,2:4->>:,,*47NZ:<@,,gs67,#4<:r>:,23::>*,,3,:::,+#@3",
"+#@#St@3,#,<r:<:9::>5r9:lrmM;a:N6Zurap=j8:78r84:>:3<r:2,3<,#;<#%",
",@<-HD59=<:5isr8y:7r5fg;frgM:q;d5nr5ra;a7:7arpa0t:>rsi;=9,3qudg,",
"N-a;BBsN6lg5ruubmqrr>pf5grmf=>:r:fr>>8-gr;rp5rfMnafri65uN;fa6iZ6",
"g;8=gmud5gr-755apq7:*9r-r8r9#<=7=h-:3:=r;--0:7pfafq:85;5d;r856n5",
"r::*hj5r:h>=::-99::##<>=9::,o##3#:*,23,9=**<,3908t:<:-=-r:>::5f:",
"9*<@0q:9=9<#-:33<<,#>:2,3,@@;<##+#@#Bt#3#@#27:<333<,>:*=>*<,:-r=",
"3@#@3>:4<2,3:7>33,<>ru:,4#<86sg,,@,:FA54,,,>rp>442,:->=<4#22<*:#",
"%#:5,,3c33>p>>8hrtarpr;rg:fa6iZ6N-i;BBsM;hprrr5hq::r::=3c#tB,##+",
",gsur:<y:5ufr>7jrfa5a5-5f;pq56N5g;r:MMag;Mp7rp7jrrrp58::t5BA;<@,",
"6Bu6ai;Nu55rrrpmgfr>r5-5a:7>-rg:r:>*lmrf;lq:8p5ffr555ga6Nibn;a;N",
"5nr>8q;f5;>>:>hhrr9<>:::q=:<:-h=9*<#>h8q:r:#=87qr7:::ra5frah:q;g",
":a7:3::t:=:<,=>9>42#,*.=:#2,,*:#3@#+#3:4*4,@@:::>:,<,:0:q>00*::r",
"=r:9,,,4,#:>,#<32,:5,@o@2@vS#@#+%#<;@@,2#,<>#2<,<2=7,23<4=9y#,*9",
"#>:>3,#4=:p5>,2>45bs8,##45FH-,@,,gsu8<#4,-is73,3:75r8<2=4>q0,#@3",
"+,,:Mq=lr5a5r;8gb6birfl5NdAZ;i:N6Ai6as:nu;6srmjgMp5rfr>8z7:9r:#%",
",,:5Mf5lr5f5q;pffrgr7rM;msBM=q;g5Nu58p;g5-6p7lmfMp5rarr5V>7apia,",
"N>a8hq5mprg>>:qaj5a8:7l:jpMl*>:r:g5-:7:h>-5r:rjjgp58q75rM5rjqrn6",
"g58:3:-j8qr=<*:88>q*#3y=88h>@<=9=h-:23*8:=:>,>t8h8:=3:-7l>7>37a5",
"r:3##@,9::4#,o<3:=3o+#3,::3#+@@3#:,,12#:* #,o2334:##,2<:t:=#,<>:",
"9,%#g,o32,21p#2##,2@r<1@2,#@;<%%+#$$mc$2@+o,53%#2,+154%#3#@%f<,=",
"8%,0Zs8c3%3ys6r3<13>du-#4#<>6sf#,$,=ADr4#%,>sB534,#96Zr3c%@9bba:",
"g=q8miiGf9qhr5sBgyl>p6;rg=r85uN5g=q=MZdm;kr>rb6mg9:85niMS:>qpiN5",
"r=>:lrrCqq>98;rzpjq:85->h=7:-5g:r:>*lMph:l>:7a5hh8=:>frjz:::8rg:",
"7*<,>77h>>32=:7r704,::=:7*3<:-h=9*<@>h88=t3#*q-87:,2:q>7r=<,:>h=",
"3@#$#<:9<2,%##:>:32$,# *:#21#,:#3@%O#<::*4%@o3=::2$%#3=:>#%%#,:#",
"#$<:#$,3#%3>#@,,#%<5,$+@2@vS@$#+%%<;@@,2$%<7#2,##2,8,,#,2+<r#@#X",
",:r;r,#4,rd6q,,437ns8,##35FH-,@,,gdur<#4,-sd53,33q6ih<@<4:fa>,#o",
"r-7:lf7Nadd5r5qnnudurfl6BdAZ;i:N6Zi6ad-Nu;6srMjNZd6rar>uB5rq8r8:",
"7=:,9q5frpr::>rff6p5>rM;biNm=q;g5n658r;dr;5r-jgdMa5>t755g;7::-r=",
"3##@,::t-7>,,=>qq>8>=>j:prgl*>:r:d5-:9:r-&;7=9rqh8::3==:t=33,*:.",
"##=;@#<4<3>-,,3:::9:#<0=97r9@<*9=h-:<3*7=*:>,3>:>::-2#,,4,0M#@#+",
",gs67,#4<:r>:,23::>*,,3,:::,+%@3#:*,,2#:,.==,,2:4->>:,,*47NZ:,@,",
"6Zurap=j8:78r84:>:3=r:2,3<##;=##+#@#St@3,#,<r:<:9::>5r9:lrmM;p:N",
"5nr5ra;a7=7arpa0t:>rsi;=9,3qudg,,@<-FD59=<:5isr8y:7r5fg;lrgM:q;d",
":fr>78-gr;rp5rfMnafra65uN;fa6iZ6N-a;BBsN6lg5ruubmrrr>pf5grml=>:r",
"=h-:3:=r>:-0:7pfafq:85;5d;r856n5g;8=gmid5gr-755pp57:*9r-r8r9#<=7",
".:*,23,9=**<,39080:<:-=-r:>::5f:r::*hj5r:r>=::-79::##<>=9::,o##3",
"+#@#Bt#3#@#27:<333,,>:*=>*<,:-r=9*<@0q:9=9<#-:33<<,#>:2,3,@@;<##",
",@,:FA54,,,>rp>442,:->=<4#22<*:#3@#@<>:4<2,3:7>33,<>ru:,4#<86sg,",
"N-i;BBim;hprrr5hq::r::=3c#tB,##+%#:5,,3c33>p>>8hrtarpr;rg:fa6iZ6",
"g;r:MMag;Mp7rp7jhrrp58::t5BA;=@,,gsur:<y:5ufr>7jrfa5a5-5f;pq56N5",
"r:>*lmrf;lq-8p5ffr555ga6Nibn;a;N6Bu6ai;Nu55rrrpmgfr>r5-5f:7>-rg:",
"9*<#>h8q:r:#=87rr7:::ra5frah=85g5nr78q;f5;>>:>hhrr9<>:-:q=:<:-p=",
"3@#+#:::*4,@@:::>:,<,:t:q>00*::h:a7:3::r:=:<,=>9>42#,*.=:#2,,*:#",
"%#=;@@,2#,<>#2<,<2=7,23<4=9y#,*9=r:9,,,4,#:>,#<32,:5,@o@<@vS#@#+",
",gsu8<#4,-is73,3:75r0<2=4>q0,#@3#>:>3,#4=:p5>,2:45bs8,#.:5FH-,@,",
"6Zi6as:nu;6srmjgMp5rfr>8z7:9r:#%+,,:Mq=lr5a5r;8gm6birfl5BdAZ;i:N",
"5Nu58p;g5-6p7lmfMp5rarr8V>7apia,,,:5Mf5lr5f5q;pffrgr7rM;msBM=q;g",
":g5-:7:h>-5r:rjjgp58q75rM5rjqrn6N;a5hq5mppg>>:qaj5a8:7l:jpMl*>:r",
"=h-:23*8:=:>,>t8h5:=3:-7l>7>37a5g58:3:-j8qr=<*:88>q*#3y=88h>@<=9",
"#:,,12#:* #,o2334:##,2<:t:<#,<>:r:3##@,9::4#,o<33=4o+#3,::3#+@@3",
"+#$$mc$2@++,53%#2,+154%#3#$%f<,=9,%#g,o32,21p#2##,2@r<1@2,%$;<%%"
};
